<?xml version="1.0" encoding="UTF-8" standalone="no"?>
<!-- Created with Inkscape (http://www.inkscape.org/) -->

<svg
   xmlns:dc="http://purl.org/dc/elements/1.1/"
   xmlns:cc="http://creativecommons.org/ns#"
   xmlns:rdf="http://www.w3.org/1999/02/22-rdf-syntax-ns#"
   xmlns:svg="http://www.w3.org/2000/svg"
   xmlns="http://www.w3.org/2000/svg"
   xmlns:sodipodi="http://sodipodi.sourceforge.net/DTD/sodipodi-0.dtd"
   xmlns:inkscape="http://www.inkscape.org/namespaces/inkscape"
   width="744.09448819"
   height="1052.3622047"
   id="svg2"
   version="1.1"
   inkscape:version="0.48.4 r9943 custom"
   sodipodi:docname="drawing.svg">
  <defs
     id="defs4" />
  <sodipodi:namedview
     id="base"
     pagecolor="#ffffff"
     bordercolor="#666666"
     borderopacity="1.0"
     inkscape:pageopacity="0.0"
     inkscape:pageshadow="2"
     inkscape:zoom="0.98994951"
     inkscape:cx="273.33013"
     inkscape:cy="580.31217"
     inkscape:document-units="px"
     inkscape:current-layer="layer1"
     showgrid="true"
     inkscape:window-width="960"
     inkscape:window-height="1119"
     inkscape:window-x="960"
     inkscape:window-y="23"
     inkscape:window-maximized="0">
    <inkscape:grid
       type="xygrid"
       id="grid2985" />
  </sodipodi:namedview>
  <metadata
     id="metadata7">
    <rdf:RDF>
      <cc:Work
         rdf:about="">
        <dc:format>image/svg+xml</dc:format>
        <dc:type
           rdf:resource="http://purl.org/dc/dcmitype/StillImage" />
        <dc:title />
      </cc:Work>
    </rdf:RDF>
  </metadata>
  <g
     inkscape:label="Layer 1"
     inkscape:groupmode="layer"
     id="layer1">
    <rect
       style="fill:#34495e;fill-opacity:1;stroke:none"
       id="rect3806"
       width="668.65851"
       height="256.01016"
       x="187.52794"
       y="104.20917"
       rx="23.749599"
       ry="19.666437" />
    <flowRoot
       xml:space="preserve"
       id="flowRoot3826"
       style="font-size:14px;font-style:normal;font-weight:normal;text-align:justify;line-height:125%;letter-spacing:0px;word-spacing:0px;text-anchor:start;fill:#ecf0f1;fill-opacity:1;stroke:none;font-family:Sans"
       transform="translate(-145.5225,58.188903)"><flowRegion
         id="flowRegion3828"><rect
           id="rect3830"
           width="730.09137"
           height="231.36066"
           x="319.20822"
           y="98.778175"
           style="font-size:14px;text-align:justify;text-anchor:start;fill:#ecf0f1;fill-opacity:1" /></flowRegion><flowPara
         id="flowPara3832"
         style="font-size:56px;font-style:normal;font-variant:normal;font-weight:normal;font-stretch:normal;text-align:center;text-anchor:middle;font-family:Raleway;-inkscape-font-specification:Raleway">PLANT MICROBE INTERACTION</flowPara><flowPara
         style="font-size:56px;font-style:normal;font-variant:normal;font-weight:normal;font-stretch:normal;text-align:center;text-anchor:middle;font-family:Raleway;-inkscape-font-specification:Raleway"
         id="flowPara3834" /></flowRoot>    <flowRoot
       xml:space="preserve"
       id="flowRoot3836"
       style="font-size:4px;font-style:normal;font-weight:normal;line-height:125%;letter-spacing:0px;word-spacing:0px;fill:#000000;fill-opacity:1;stroke:none;font-family:Sans"
       transform="translate(0,-14.647212)"><flowRegion
         id="flowRegion3838"><rect
           id="rect3840"
           width="562.85712"
           height="40.714287"
           x="259.28571"
           y="315.21933" /></flowRegion><flowPara
         id="flowPara3842"
         style="font-size:36px;text-align:center;text-anchor:middle;fill:#1abc9c;fill-opacity:1">TSL SUMMER SCHOOL</flowPara></flowRoot>    <path
       id="path3937"
       style="fill:#b1c635;fill-opacity:1;fill-rule:nonzero;stroke:none"
       d="m 259.83939,565.43919 0.0148,-0.0276 c 0.2018,-1.23057 0.76098,-2.27586 1.67653,-3.13647 -0.30699,0.0752 -0.48715,0.1182 -0.58373,0.1372 -0.54559,0.0383 -0.94515,0.0573 -1.19828,0.0573 l -11.60149,0 c -0.64296,0 -1.16891,-0.0668 -1.57786,-0.2009 l -1.1398,3.67856 c 0.66208,-0.50965 1.29476,-0.84293 1.89834,-1.00001 0.46717,-0.11747 1.16805,-0.17635 2.10296,-0.17635 1.05133,0 1.87864,0.0295 2.4825,0.0877 l 0,13.97404 c 0,1.11131 -0.0391,1.85181 -0.11672,2.22195 -0.17494,0.79911 -0.59274,1.37421 -1.2531,1.72488 l 6.10768,0 c -0.66836,-0.44799 -1.1107,-0.91087 -1.32701,-1.38837 -0.21632,-0.47721 -0.3242,-1.22256 -0.3242,-2.23599 l 0,-14.29285 0.49799,0 c 0.56619,0 1.02965,-0.0151 1.39093,-0.0456 0.36129,-0.0303 0.61984,-0.0457 0.77623,-0.0457 0.7808,0 1.33454,0.0587 1.66947,0.14699 0.14275,0.0377 0.28333,0.0928 0.50478,0.52133"
       inkscape:connector-curvature="0"
       inkscape:export-filename="/Users/pagem/Documents/workspace/summerSchool/img/TSL.png"
       inkscape:export-xdpi="380.06427"
       inkscape:export-ydpi="380.06427" />
    <path
       id="path3939"
       style="fill:#b1c635;fill-opacity:1;fill-rule:nonzero;stroke:none"
       d="m 276.6393,576.82132 c 0,1.57701 -0.64071,2.98638 -1.92198,4.22805 -1.59702,1.53774 -3.77529,2.30644 -6.53523,2.30644 -1.87303,0 -3.70618,-0.32527 -5.50016,-0.97559 l -0.94624,-3.8738 c 2.1077,1.65007 4.39306,2.47504 6.85566,2.47504 1.31985,0 2.42798,-0.30535 3.32438,-0.91629 0.89641,-0.61077 1.34469,-1.36953 1.34469,-2.27612 0,-0.8671 -0.34468,-1.60594 -1.0339,-2.21688 -0.59074,-0.51254 -1.9249,-1.24168 -4.0025,-2.18749 -2.07759,-0.94573 -3.50994,-1.77351 -4.2975,-2.48295 -1.08328,-0.98513 -1.62464,-2.1874 -1.62464,-3.60631 0,-1.6752 0.70486,-3.01506 2.11456,-4.02018 1.40986,-1.00511 3.29823,-1.5076 5.66454,-1.5076 1.55772,0 3.14525,0.22662 4.76214,0.67914 l 0,3.54384 c -1.40035,-1.35403 -3.0472,-2.03127 -4.9404,-2.03127 -1.22311,0 -2.21435,0.27104 -2.97341,0.81327 -0.7595,0.54223 -1.13896,1.24679 -1.13896,2.11383 0,0.76885 0.30041,1.41467 0.90152,1.93685 0.60097,0.52226 1.83782,1.21714 3.70998,2.08442 2.22707,1.02507 3.74446,1.86289 4.55261,2.51321 1.12318,0.88724 1.68484,2.02076 1.68484,3.40039"
       inkscape:connector-curvature="0"
       inkscape:export-filename="/Users/pagem/Documents/workspace/summerSchool/img/TSL.png"
       inkscape:export-xdpi="380.06427"
       inkscape:export-ydpi="380.06427" />
    <path
       id="path3941"
       style="fill:#b1c635;fill-opacity:1;fill-rule:nonzero;stroke:none"
       d="m 292.78999,578.6707 -1.63633,4.09118 -12.59515,0 c 0.66028,-0.35056 1.07817,-0.9252 1.25307,-1.72431 0.0776,-0.3504 0.11674,-1.09073 0.11674,-2.22076 l 0,-12.4197 c 0,-1.1299 -0.0392,-1.87011 -0.11674,-2.22078 -0.1749,-0.79881 -0.59279,-1.37362 -1.25307,-1.72429 l 5.84455,0 c -0.6695,0.35067 -1.09308,0.92548 -1.27002,1.72429 -0.0788,0.35067 -0.11806,1.09088 -0.11806,2.22078 l 0,13.85172 c 1.44375,0.21422 2.82891,0.32135 4.15591,0.32135 1.11193,0 2.07277,-0.13619 2.88268,-0.40902 0.80962,-0.27276 1.72166,-0.76971 2.73642,-1.49046"
       inkscape:connector-curvature="0"
       inkscape:export-filename="/Users/pagem/Documents/workspace/summerSchool/img/TSL.png"
       inkscape:export-xdpi="380.06427"
       inkscape:export-ydpi="380.06427" />
    <path
       id="path3943"
       style="fill:#b1c635;fill-opacity:1;fill-rule:nonzero;stroke:none"
       d="m 246.91619,557.83426 0,2.20091 -0.35838,0 0,-2.20091 -0.96121,0 0,-0.33095 2.28309,0 0,0.33095 -0.9635,0"
       inkscape:connector-curvature="0"
       inkscape:export-filename="/Users/pagem/Documents/workspace/summerSchool/img/TSL.png"
       inkscape:export-xdpi="380.06427"
       inkscape:export-ydpi="380.06427" />
    <path
       id="path3945"
       style="fill:#b1c635;fill-opacity:1;fill-rule:nonzero;stroke:none"
       d="m 248.17014,560.03517 0,-2.53186 0.33675,0 0,0.97882 c 0.10285,-0.12566 0.2182,-0.21888 0.34623,-0.27996 0.12789,-0.0611 0.27121,-0.0916 0.43,-0.0916 0.12346,0 0.23281,0.018 0.32818,0.0539 0.0954,0.0359 0.17397,0.0893 0.23561,0.16014 0.0537,0.0617 0.0918,0.13515 0.11404,0.22077 0.0222,0.0856 0.0333,0.22327 0.0333,0.41278 l 0,1.077 -0.34011,0 0,-1.09074 c 0,-0.19857 -0.0345,-0.33927 -0.10365,-0.42212 -0.0691,-0.0827 -0.18408,-0.12405 -0.34496,-0.12405 -0.20554,0 -0.37271,0.0627 -0.5017,0.18834 -0.12899,0.12551 -0.19348,0.29047 -0.19348,0.49474 l 0,0.95383 -0.34024,0"
       inkscape:connector-curvature="0"
       inkscape:export-filename="/Users/pagem/Documents/workspace/summerSchool/img/TSL.png"
       inkscape:export-xdpi="380.06427"
       inkscape:export-ydpi="380.06427" />
    <path
       id="path3947"
       style="fill:#b1c635;fill-opacity:1;fill-rule:nonzero;stroke:none"
       d="m 250.75653,558.92324 1.32079,0 c -0.0262,-0.15955 -0.0978,-0.28477 -0.21478,-0.37536 -0.11689,-0.0906 -0.26484,-0.13603 -0.44387,-0.13603 -0.17797,0 -0.32569,0.0454 -0.44315,0.13603 -0.11752,0.0906 -0.19046,0.21581 -0.21899,0.37536 z m -0.0102,0.24212 0,0.0137 c 0,0.17753 0.0624,0.32233 0.18732,0.43454 0.12483,0.11207 0.28653,0.16803 0.48504,0.16803 0.14822,0 0.27475,-0.0294 0.37984,-0.0883 0.10484,-0.0587 0.17669,-0.13968 0.21552,-0.24269 l 0.39655,0 c -0.0673,0.20485 -0.18789,0.36455 -0.36191,0.47896 -0.17398,0.1144 -0.38418,0.17168 -0.63058,0.17168 -0.31266,0 -0.56254,-0.091 -0.74957,-0.27294 -0.18715,-0.18206 -0.28064,-0.42534 -0.28064,-0.72998 0,-0.30494 0.0936,-0.54852 0.28075,-0.73057 0.18727,-0.18221 0.4372,-0.27338 0.75004,-0.27338 0.31963,0 0.57018,0.0891 0.75168,0.26739 0.18151,0.17811 0.27226,0.42358 0.27226,0.73656 l 0,0.0669 -1.6963,0"
       inkscape:connector-curvature="0"
       inkscape:export-filename="/Users/pagem/Documents/workspace/summerSchool/img/TSL.png"
       inkscape:export-xdpi="380.06427"
       inkscape:export-ydpi="380.06427" />
    <path
       id="path3949"
       style="fill:#b1c635;fill-opacity:1;fill-rule:nonzero;stroke:none"
       d="m 252.98887,559.17894 0.37899,0 c 0.007,0.19989 0.0757,0.3479 0.20644,0.44434 0.13082,0.0966 0.32699,0.14479 0.58868,0.14479 0.22385,0 0.39696,-0.0371 0.51916,-0.11133 0.12219,-0.0742 0.18339,-0.17987 0.18339,-0.31678 0,-0.0994 -0.0336,-0.17665 -0.10052,-0.23203 -0.0671,-0.0554 -0.1791,-0.0969 -0.33612,-0.12419 l -0.62669,-0.1131 c -0.25478,-0.0444 -0.44074,-0.12083 -0.55779,-0.22866 -0.11707,-0.10798 -0.17563,-0.25512 -0.17563,-0.44127 0,-0.24445 0.0925,-0.43323 0.2775,-0.56634 0.18498,-0.13296 0.44884,-0.19959 0.79153,-0.19959 0.32321,0 0.57167,0.0694 0.74523,0.20822 0.17363,0.1388 0.26216,0.33723 0.26558,0.59541 l -0.35843,0 c -0.0126,-0.16102 -0.0739,-0.27995 -0.18408,-0.35696 -0.11015,-0.0771 -0.27539,-0.11572 -0.4957,-0.11572 -0.2146,0 -0.3787,0.0346 -0.49227,0.1036 -0.11359,0.0691 -0.17037,0.1689 -0.17037,0.29909 0,0.0947 0.0323,0.16745 0.0967,0.21829 0.0645,0.0507 0.18178,0.0926 0.35187,0.12581 l 0.55649,0.10973 c 0.29262,0.056 0.49695,0.13559 0.61305,0.23875 0.11597,0.1033 0.17402,0.25248 0.17402,0.44769 0,0.25117 -0.0957,0.44594 -0.28698,0.5846 -0.19126,0.13867 -0.46162,0.20807 -0.81115,0.20807 -0.37693,0 -0.6622,-0.0773 -0.85575,-0.23188 -0.19354,-0.15459 -0.29262,-0.38472 -0.29719,-0.69054"
       inkscape:connector-curvature="0"
       inkscape:export-filename="/Users/pagem/Documents/workspace/summerSchool/img/TSL.png"
       inkscape:export-xdpi="380.06427"
       inkscape:export-ydpi="380.06427" />
    <path
       id="path3951"
       style="fill:#b1c635;fill-opacity:1;fill-rule:nonzero;stroke:none"
       d="m 257.09033,559.0717 c -0.0469,0.0275 -0.11574,0.0517 -0.20655,0.0728 -0.0909,0.0212 -0.21169,0.0402 -0.36249,0.0574 -0.24451,0.0273 -0.39993,0.0621 -0.46625,0.10433 -0.0662,0.0421 -0.0994,0.10754 -0.0994,0.19638 0,0.0912 0.0363,0.16247 0.10879,0.21361 0.0726,0.0513 0.17345,0.077 0.30256,0.077 0.20798,0 0.38052,-0.0427 0.51761,-0.12815 0.1371,-0.0855 0.2057,-0.18965 0.2057,-0.31268 l 0,-0.28068 z m 0.0103,0.67241 c -0.0845,0.10944 -0.19428,0.19287 -0.32916,0.25044 -0.13481,0.0574 -0.28858,0.0862 -0.46111,0.0862 -0.23087,0 -0.40969,-0.0495 -0.53651,-0.14875 -0.12689,-0.0992 -0.19029,-0.23772 -0.19029,-0.41569 0,-0.0969 0.0225,-0.18337 0.0677,-0.25906 0.0451,-0.076 0.11291,-0.14114 0.2032,-0.19594 0.0445,-0.0273 0.10879,-0.0501 0.1928,-0.0684 0.084,-0.0183 0.22082,-0.0377 0.41055,-0.0583 0.0332,-0.003 0.0811,-0.008 0.14405,-0.0153 0.32106,-0.031 0.48167,-0.11265 0.48167,-0.24547 0,-0.0994 -0.0383,-0.17169 -0.11485,-0.21698 -0.0764,-0.0452 -0.20101,-0.0678 -0.37338,-0.0678 -0.19532,0 -0.33788,0.0291 -0.4275,0.0872 -0.0897,0.0582 -0.13904,0.15152 -0.14817,0.2804 l -0.35387,0.002 c 0.0114,-0.22005 0.0928,-0.38559 0.24412,-0.49693 0.15136,-0.11119 0.3715,-0.16686 0.66054,-0.16686 0.31415,0 0.53599,0.0472 0.66561,0.14129 0.12962,0.0941 0.19452,0.25511 0.19452,0.48334 l 0,0.75804 c 0,0.10491 0.0122,0.17738 0.0367,0.21727 0.0245,0.0399 0.0681,0.0599 0.13077,0.0599 0.0136,0 0.0287,-8.8e-4 0.0452,-0.003 0.0166,-0.002 0.034,-0.004 0.0522,-0.008 l 0,0.27397 c -0.0445,0.006 -0.0888,0.01 -0.13333,0.0127 -0.0444,0.003 -0.0872,0.004 -0.1282,0.004 -0.0991,0 -0.17522,-0.0231 -0.22813,-0.0694 -0.0529,-0.0462 -0.088,-0.12011 -0.10507,-0.22166"
       inkscape:connector-curvature="0"
       inkscape:export-filename="/Users/pagem/Documents/workspace/summerSchool/img/TSL.png"
       inkscape:export-xdpi="380.06427"
       inkscape:export-ydpi="380.06427" />
    <path
       id="path3953"
       style="fill:#b1c635;fill-opacity:1;fill-rule:nonzero;stroke:none"
       d="m 258.02449,560.03517 0,-1.87668 0.34017,0 0,1.87668 -0.34017,0 z m 0.34017,-2.12099 -0.34017,0 0,-0.41087 0.34017,0 0,0.41087"
       inkscape:connector-curvature="0"
       inkscape:export-filename="/Users/pagem/Documents/workspace/summerSchool/img/TSL.png"
       inkscape:export-xdpi="380.06427"
       inkscape:export-ydpi="380.06427" />
    <path
       id="path3955"
       style="fill:#b1c635;fill-opacity:1;fill-rule:nonzero;stroke:none"
       d="m 258.87452,560.03517 0,-1.87668 0.33675,0 0,0.32364 c 0.10279,-0.12566 0.21813,-0.21888 0.34604,-0.27996 0.12803,-0.0611 0.27145,-0.0916 0.43025,-0.0916 0.12335,0 0.23279,0.018 0.32805,0.0539 0.0954,0.0359 0.17388,0.0893 0.23569,0.16014 0.0536,0.0617 0.0916,0.13515 0.11382,0.22077 0.0224,0.0856 0.0335,0.22327 0.0335,0.41278 l 0,1.077 -0.34015,0 0,-1.09074 c 0,-0.19857 -0.0345,-0.33927 -0.1036,-0.42212 -0.069,-0.0827 -0.18396,-0.12405 -0.34496,-0.12405 -0.20546,0 -0.37271,0.0627 -0.5017,0.18834 -0.12899,0.12551 -0.19348,0.29047 -0.19348,0.49474 l 0,0.95383 -0.34017,0"
       inkscape:connector-curvature="0"
       inkscape:export-filename="/Users/pagem/Documents/workspace/summerSchool/img/TSL.png"
       inkscape:export-xdpi="380.06427"
       inkscape:export-ydpi="380.06427" />
    <path
       id="path3957"
       style="fill:#b1c635;fill-opacity:1;fill-rule:nonzero;stroke:none"
       d="m 261.0624,559.42558 0.37435,0 c 0.0161,0.11967 0.0713,0.21202 0.16598,0.27704 0.0947,0.0649 0.22253,0.0973 0.3834,0.0973 0.18484,0 0.32861,-0.0251 0.43133,-0.0751 0.10257,-0.0503 0.154,-0.11982 0.154,-0.2088 0,-0.065 -0.0241,-0.11441 -0.072,-0.14816 -0.0481,-0.0336 -0.13778,-0.0612 -0.26929,-0.0829 l -0.41949,-0.0738 c -0.25804,-0.0434 -0.43235,-0.10272 -0.52309,-0.17812 -0.0907,-0.0754 -0.13618,-0.1879 -0.13618,-0.33737 0,-0.19638 0.0716,-0.34571 0.21494,-0.44799 0.14334,-0.10213 0.35316,-0.15327 0.62946,-0.15327 0.27747,0 0.48962,0.0529 0.63632,0.15838 0.1467,0.1055 0.2202,0.25746 0.2202,0.45588 l 0,0.0136 -0.3311,0 c -0.0114,-0.11499 -0.0617,-0.20047 -0.15064,-0.25629 -0.0891,-0.0558 -0.21976,-0.0839 -0.39217,-0.0839 -0.15751,0 -0.27762,0.0218 -0.36046,0.0652 -0.0827,0.0432 -0.12405,0.10608 -0.12405,0.1882 0,0.0719 0.0251,0.1258 0.0752,0.16174 0.0503,0.036 0.16555,0.0693 0.346,0.10009 l 0.40751,0.0669 c 0.22531,0.0377 0.38165,0.0961 0.46917,0.17549 0.0875,0.0793 0.13121,0.19783 0.13121,0.35534 0,0.19419 -0.0808,0.34366 -0.2424,0.44872 -0.1616,0.10506 -0.39319,0.15751 -0.69477,0.15751 -0.29135,0 -0.51257,-0.0554 -0.66394,-0.16598 -0.15137,-0.11061 -0.23787,-0.28054 -0.2595,-0.5098"
       inkscape:connector-curvature="0"
       inkscape:export-filename="/Users/pagem/Documents/workspace/summerSchool/img/TSL.png"
       inkscape:export-xdpi="380.06427"
       inkscape:export-ydpi="380.06427" />
    <path
       id="path3959"
       style="fill:#b1c635;fill-opacity:1;fill-rule:nonzero;stroke:none"
       d="m 263.65402,559.10589 c 0,0.20909 0.0614,0.37361 0.18454,0.49357 0.12318,0.12011 0.29077,0.18001 0.50293,0.18001 0.21201,0 0.37872,-0.0596 0.50015,-0.17913 0.12142,-0.11938 0.1822,-0.2842 0.1822,-0.49445 0,-0.20895 -0.0608,-0.37347 -0.1822,-0.49343 -0.12143,-0.11996 -0.28814,-0.18001 -0.50015,-0.18001 -0.21216,0 -0.37975,0.0603 -0.50293,0.18074 -0.12317,0.12069 -0.18454,0.28492 -0.18454,0.4927 z m -0.3403,-1.60258 0.3403,0 0,0.94287 c 0.0969,-0.10958 0.20383,-0.19068 0.32072,-0.24313 0.11704,-0.0526 0.25073,-0.0788 0.40138,-0.0788 0.2988,0 0.5412,0.0907 0.72706,0.27236 0.186,0.18147 0.27908,0.41789 0.27908,0.70894 0,0.29252 -0.0931,0.52996 -0.27908,0.7126 -0.18586,0.18264 -0.42709,0.27397 -0.7237,0.27397 -0.15065,0 -0.2858,-0.027 -0.40561,-0.0811 -0.11967,-0.0541 -0.22634,-0.13705 -0.31985,-0.24868 l 0,0.27279 -0.3403,0 0,-2.53186"
       inkscape:connector-curvature="0"
       inkscape:export-filename="/Users/pagem/Documents/workspace/summerSchool/img/TSL.png"
       inkscape:export-xdpi="380.06427"
       inkscape:export-ydpi="380.06427" />
    <path
       id="path3961"
       style="fill:#b1c635;fill-opacity:1;fill-rule:nonzero;stroke:none"
       d="m 267.59033,558.15849 0,1.87668 -0.33679,0 0,-0.32013 c -0.10389,0.12595 -0.21903,0.21946 -0.34571,0.28068 -0.12668,0.0612 -0.26987,0.0919 -0.42957,0.0919 -0.12216,0 -0.23116,-0.0186 -0.32701,-0.0557 -0.0958,-0.0371 -0.17519,-0.091 -0.23787,-0.1619 -0.0525,-0.0617 -0.0901,-0.13559 -0.11295,-0.22194 -0.0228,-0.0862 -0.0342,-0.22414 -0.0342,-0.4138 l 0,-1.07583 0.34016,0 0,1.08957 c 0,0.19842 0.0345,0.33927 0.10359,0.42256 0.069,0.0833 0.18396,0.12478 0.34498,0.12478 0.20543,0 0.37273,-0.063 0.50175,-0.18893 0.12887,-0.12595 0.19345,-0.29106 0.19345,-0.49518 l 0,-0.9528 0.34016,0"
       inkscape:connector-curvature="0"
       inkscape:export-filename="/Users/pagem/Documents/workspace/summerSchool/img/TSL.png"
       inkscape:export-xdpi="380.06427"
       inkscape:export-ydpi="380.06427" />
    <path
       id="path3963"
       style="fill:#b1c635;fill-opacity:1;fill-rule:nonzero;stroke:none"
       d="m 268.08858,560.03517 0,-1.87668 0.33679,0 0,0.31633 c 0.0858,-0.12332 0.18746,-0.21742 0.30523,-0.28273 0.11762,-0.065 0.24635,-0.0976 0.38574,-0.0976 0.0343,0 0.0628,0.003 0.0858,0.008 0.0228,0.005 0.045,0.0136 0.0668,0.025 l 0,0.35754 c -0.0457,-0.0134 -0.0883,-0.0232 -0.12755,-0.0295 -0.0397,-0.006 -0.0782,-0.009 -0.11587,-0.009 -0.16818,0 -0.30947,0.0636 -0.42446,0.19083 -0.11485,0.12726 -0.17227,0.28667 -0.17227,0.47837 l 0,0.91979 -0.34015,0"
       inkscape:connector-curvature="0"
       inkscape:export-filename="/Users/pagem/Documents/workspace/summerSchool/img/TSL.png"
       inkscape:export-xdpi="380.06427"
       inkscape:export-ydpi="380.06427" />
    <path
       id="path3965"
       style="fill:#b1c635;fill-opacity:1;fill-rule:nonzero;stroke:none"
       d="m 270.63534,560.02144 c -0.0754,0.17256 -0.14027,0.30245 -0.19448,0.38983 -0.0542,0.0875 -0.10593,0.14947 -0.15517,0.186 -0.0479,0.0342 -0.10681,0.0603 -0.17636,0.078 -0.0698,0.0177 -0.1505,0.0264 -0.24182,0.0264 -0.0308,0 -0.0662,-0.001 -0.10608,-0.003 -0.0402,-0.002 -0.0831,-0.006 -0.12872,-0.0104 l 0,-0.31955 c 0.0456,0.007 0.0846,0.012 0.11674,0.0153 0.032,0.004 0.0593,0.005 0.0821,0.005 0.12098,0 0.21201,-0.0251 0.27265,-0.0752 0.0605,-0.0503 0.11002,-0.14305 0.14889,-0.27864 l -0.85097,-1.87668 0.40546,0 0.63925,1.58212 0.62391,-1.58212 0.39743,0 -0.83285,1.86295"
       inkscape:connector-curvature="0"
       inkscape:export-filename="/Users/pagem/Documents/workspace/summerSchool/img/TSL.png"
       inkscape:export-xdpi="380.06427"
       inkscape:export-ydpi="380.06427" />
    <path
       id="path3967"
       style="fill:#b1c635;fill-opacity:1;fill-rule:nonzero;stroke:none"
       d="m 271.94423,560.03517 0,-2.53186 0.35841,0 0,2.19171 1.55027,0 0,0.34015 -1.90868,0"
       inkscape:connector-curvature="0"
       inkscape:export-filename="/Users/pagem/Documents/workspace/summerSchool/img/TSL.png"
       inkscape:export-xdpi="380.06427"
       inkscape:export-ydpi="380.06427" />
    <path
       id="path3969"
       style="fill:#b1c635;fill-opacity:1;fill-rule:nonzero;stroke:none"
       d="m 275.63594,559.0717 c -0.0469,0.0275 -0.11587,0.0517 -0.20661,0.0728 -0.0907,0.0212 -0.21172,0.0402 -0.36251,0.0574 -0.24444,0.0273 -0.40005,0.0621 -0.46624,0.10433 -0.0662,0.0421 -0.0994,0.10754 -0.0994,0.19638 0,0.0912 0.0362,0.16247 0.10871,0.21361 0.0726,0.0513 0.17358,0.077 0.3026,0.077 0.20806,0 0.38048,-0.0427 0.51768,-0.12815 0.13705,-0.0855 0.20573,-0.18965 0.20573,-0.31268 l 0,-0.28068 z m 0.0102,0.67241 c -0.0847,0.10944 -0.19434,0.19287 -0.32934,0.25044 -0.13472,0.0574 -0.28843,0.0862 -0.46085,0.0862 -0.23086,0 -0.40985,-0.0495 -0.53667,-0.14875 -0.12683,-0.0992 -0.19024,-0.23772 -0.19024,-0.41569 0,-0.0969 0.0226,-0.18337 0.0677,-0.25906 0.0451,-0.076 0.1128,-0.14114 0.20324,-0.19594 0.0446,-0.0273 0.10871,-0.0501 0.19287,-0.0684 0.0839,-0.0183 0.22078,-0.0377 0.41044,-0.0583 0.033,-0.003 0.0812,-0.008 0.14406,-0.0153 0.32102,-0.031 0.48174,-0.11265 0.48174,-0.24547 0,-0.0994 -0.0383,-0.17169 -0.11484,-0.21698 -0.0766,-0.0452 -0.20106,-0.0678 -0.37347,-0.0678 -0.1955,0 -0.33782,0.0291 -0.42753,0.0872 -0.0896,0.0582 -0.13895,0.15152 -0.14801,0.2804 l -0.35389,0.002 c 0.0114,-0.22005 0.0928,-0.38559 0.24401,-0.49693 0.15152,-0.11119 0.37157,-0.16686 0.66058,-0.16686 0.31414,0 0.53594,0.0472 0.66555,0.14129 0.12975,0.0941 0.19462,0.25511 0.19462,0.48334 l 0,0.75804 c 0,0.10491 0.0123,0.17738 0.0367,0.21727 0.0244,0.0399 0.0681,0.0599 0.13077,0.0599 0.0134,0 0.0286,-8.8e-4 0.0452,-0.003 0.0165,-0.002 0.034,-0.004 0.0523,-0.008 l 0,0.27397 c -0.0446,0.006 -0.0891,0.01 -0.13341,0.0127 -0.0444,0.003 -0.0872,0.004 -0.12814,0.004 -0.0992,0 -0.17519,-0.0231 -0.22823,-0.0694 -0.053,-0.0462 -0.088,-0.12011 -0.10505,-0.22166"
       inkscape:connector-curvature="0"
       inkscape:export-filename="/Users/pagem/Documents/workspace/summerSchool/img/TSL.png"
       inkscape:export-xdpi="380.06427"
       inkscape:export-ydpi="380.06427" />
    <path
       id="path3971"
       style="fill:#b1c635;fill-opacity:1;fill-rule:nonzero;stroke:none"
       d="m 276.90362,559.10589 c 0,0.20909 0.0617,0.37361 0.18454,0.49357 0.12332,0.12011 0.29092,0.18001 0.50293,0.18001 0.21201,0 0.37872,-0.0596 0.50029,-0.17913 0.12127,-0.11938 0.18206,-0.2842 0.18206,-0.49445 0,-0.20895 -0.0608,-0.37347 -0.18206,-0.49343 -0.12157,-0.11996 -0.28828,-0.18001 -0.50029,-0.18001 -0.21201,0 -0.37961,0.0603 -0.50293,0.18074 -0.12288,0.12069 -0.18454,0.28492 -0.18454,0.4927 z m -0.34015,-1.60258 0.34015,0 0,0.94287 c 0.097,-0.10958 0.20383,-0.19068 0.32072,-0.24313 0.11704,-0.0526 0.25088,-0.0788 0.40123,-0.0788 0.29909,0 0.54135,0.0907 0.7275,0.27236 0.18571,0.18147 0.27879,0.41789 0.27879,0.70894 0,0.29252 -0.0931,0.52996 -0.27879,0.7126 -0.18615,0.18264 -0.42724,0.27397 -0.72399,0.27397 -0.1505,0 -0.2858,-0.027 -0.40562,-0.0811 -0.11966,-0.0541 -0.22633,-0.13705 -0.31984,-0.24868 l 0,0.27279 -0.34015,0 0,-2.53186"
       inkscape:connector-curvature="0"
       inkscape:export-filename="/Users/pagem/Documents/workspace/summerSchool/img/TSL.png"
       inkscape:export-xdpi="380.06427"
       inkscape:export-ydpi="380.06427" />
    <path
       id="path3973"
       style="fill:#b1c635;fill-opacity:1;fill-rule:nonzero;stroke:none"
       d="m 279.27461,559.0977 c 0,0.21085 0.0625,0.37771 0.18761,0.5003 0.12507,0.12259 0.29486,0.18366 0.50965,0.18366 0.21464,0 0.38427,-0.0611 0.50862,-0.18366 0.12449,-0.12259 0.18688,-0.28945 0.18688,-0.5003 0,-0.21201 -0.0624,-0.37931 -0.18688,-0.5019 -0.12435,-0.12259 -0.29398,-0.18395 -0.50862,-0.18395 -0.21479,0 -0.38458,0.0617 -0.50965,0.18483 -0.12507,0.12303 -0.18761,0.29004 -0.18761,0.50102 z m -0.35389,3e-4 c 0,-0.30363 0.0956,-0.54676 0.28609,-0.7294 0.19068,-0.18265 0.44609,-0.27411 0.76593,-0.27411 0.3197,0 0.57438,0.0912 0.76403,0.27323 0.18951,0.18206 0.28434,0.42548 0.28434,0.73028 0,0.30479 -0.0948,0.54822 -0.28434,0.73027 -0.18965,0.18206 -0.44433,0.27309 -0.76403,0.27309 -0.31984,0 -0.57525,-0.091 -0.76593,-0.27309 -0.19053,-0.18205 -0.28609,-0.42548 -0.28609,-0.73027"
       inkscape:connector-curvature="0"
       inkscape:export-filename="/Users/pagem/Documents/workspace/summerSchool/img/TSL.png"
       inkscape:export-xdpi="380.06427"
       inkscape:export-ydpi="380.06427" />
    <path
       id="path3975"
       style="fill:#b1c635;fill-opacity:1;fill-rule:nonzero;stroke:none"
       d="m 281.41372,560.03517 0,-1.87668 0.33679,0 0,0.31633 c 0.0856,-0.12332 0.18746,-0.21742 0.30494,-0.28273 0.11791,-0.065 0.24649,-0.0976 0.38588,-0.0976 0.0342,0 0.063,0.003 0.0859,0.008 0.0228,0.005 0.0452,0.0136 0.0668,0.025 l 0,0.35754 c -0.0456,-0.0134 -0.0883,-0.0232 -0.12785,-0.0295 -0.0394,-0.006 -0.0779,-0.009 -0.11557,-0.009 -0.16803,0 -0.30962,0.0636 -0.42432,0.19083 -0.11499,0.12726 -0.17241,0.28667 -0.17241,0.47837 l 0,0.91979 -0.34015,0"
       inkscape:connector-curvature="0"
       inkscape:export-filename="/Users/pagem/Documents/workspace/summerSchool/img/TSL.png"
       inkscape:export-xdpi="380.06427"
       inkscape:export-ydpi="380.06427" />
    <path
       id="path3977"
       style="fill:#b1c635;fill-opacity:1;fill-rule:nonzero;stroke:none"
       d="m 284.27229,559.0717 c -0.0468,0.0275 -0.11573,0.0517 -0.20661,0.0728 -0.0907,0.0212 -0.21157,0.0402 -0.36236,0.0574 -0.2446,0.0273 -0.39991,0.0621 -0.4664,0.10433 -0.0662,0.0421 -0.0992,0.10754 -0.0992,0.19638 0,0.0912 0.0362,0.16247 0.10871,0.21361 0.0728,0.0513 0.17344,0.077 0.3026,0.077 0.20792,0 0.38063,-0.0427 0.51754,-0.12815 0.13735,-0.0855 0.20573,-0.18965 0.20573,-0.31268 l 0,-0.28068 z m 0.0104,0.67241 c -0.0845,0.10944 -0.19433,0.19287 -0.32905,0.25044 -0.13501,0.0574 -0.28872,0.0862 -0.46128,0.0862 -0.23086,0 -0.4097,-0.0495 -0.53638,-0.14875 -0.12712,-0.0992 -0.19039,-0.23772 -0.19039,-0.41569 0,-0.0969 0.0225,-0.18337 0.0677,-0.25906 0.045,-0.076 0.11295,-0.14114 0.2031,-0.19594 0.0446,-0.0273 0.10885,-0.0501 0.19302,-0.0684 0.0839,-0.0183 0.22077,-0.0377 0.41043,-0.0583 0.0333,-0.003 0.0812,-0.008 0.14407,-0.0153 0.32101,-0.031 0.48159,-0.11265 0.48159,-0.24547 0,-0.0994 -0.0381,-0.17169 -0.1147,-0.21698 -0.0764,-0.0452 -0.2012,-0.0678 -0.37347,-0.0678 -0.19521,0 -0.33796,0.0291 -0.42753,0.0872 -0.0896,0.0582 -0.13895,0.15152 -0.14816,0.2804 l -0.35388,0.002 c 0.0114,-0.22005 0.0928,-0.38559 0.24415,-0.49693 0.15138,-0.11119 0.37142,-0.16686 0.66058,-0.16686 0.31415,0 0.53595,0.0472 0.66555,0.14129 0.12975,0.0941 0.19448,0.25511 0.19448,0.48334 l 0,0.75804 c 0,0.10491 0.0123,0.17738 0.0368,0.21727 0.0244,0.0399 0.0679,0.0599 0.13077,0.0599 0.0137,0 0.0286,-8.8e-4 0.0451,-0.003 0.0165,-0.002 0.0339,-0.004 0.0522,-0.008 l 0,0.27397 c -0.0446,0.006 -0.0887,0.01 -0.13325,0.0127 -0.0446,0.003 -0.0872,0.004 -0.12814,0.004 -0.0994,0 -0.17519,-0.0231 -0.22838,-0.0694 -0.0528,-0.0462 -0.0878,-0.12011 -0.10491,-0.22166"
       inkscape:connector-curvature="0"
       inkscape:export-filename="/Users/pagem/Documents/workspace/summerSchool/img/TSL.png"
       inkscape:export-xdpi="380.06427"
       inkscape:export-ydpi="380.06427" />
    <path
       id="path3979"
       style="fill:#b1c635;fill-opacity:1;fill-rule:nonzero;stroke:none"
       d="m 285.65102,559.57287 c 0,0.0796 0.0174,0.13632 0.0522,0.16993 0.0352,0.0336 0.0937,0.0504 0.17607,0.0504 0.0308,0 0.065,-0.003 0.10228,-0.008 0.0371,-0.005 0.0792,-0.0131 0.12609,-0.0244 l 0,0.30786 c -0.0814,0.0124 -0.14436,0.021 -0.18951,0.0256 -0.0454,0.004 -0.0862,0.007 -0.12273,0.007 -0.16613,0 -0.28902,-0.0354 -0.36894,-0.10608 -0.0802,-0.0706 -0.12011,-0.17884 -0.12011,-0.32481 l 0,-1.21742 -0.32656,0 0,-0.29456 0.32656,0 0,-0.47721 0.34469,0 0,0.47721 0.4566,0 0,0.29456 -0.4566,0 0,1.11982"
       inkscape:connector-curvature="0"
       inkscape:export-filename="/Users/pagem/Documents/workspace/summerSchool/img/TSL.png"
       inkscape:export-xdpi="380.06427"
       inkscape:export-ydpi="380.06427" />
    <path
       id="path3981"
       style="fill:#b1c635;fill-opacity:1;fill-rule:nonzero;stroke:none"
       d="m 286.62837,559.0977 c 0,0.21085 0.0625,0.37771 0.18776,0.5003 0.12507,0.12259 0.29486,0.18366 0.5095,0.18366 0.21478,0 0.38442,-0.0611 0.50876,-0.18366 0.12449,-0.12259 0.18674,-0.28945 0.18674,-0.5003 0,-0.21201 -0.0623,-0.37931 -0.18674,-0.5019 -0.12434,-0.12259 -0.29398,-0.18395 -0.50876,-0.18395 -0.21464,0 -0.38443,0.0617 -0.5095,0.18483 -0.12522,0.12303 -0.18776,0.29004 -0.18776,0.50102 z m -0.35389,3e-4 c 0,-0.30363 0.0954,-0.54676 0.28624,-0.7294 0.19068,-0.18265 0.44609,-0.27411 0.76578,-0.27411 0.31985,0 0.57438,0.0912 0.76418,0.27323 0.18951,0.18206 0.28419,0.42548 0.28419,0.73028 0,0.30479 -0.0947,0.54822 -0.28419,0.73027 -0.1898,0.18206 -0.44433,0.27309 -0.76418,0.27309 -0.31969,0 -0.5751,-0.091 -0.76578,-0.27309 -0.19082,-0.18205 -0.28624,-0.42548 -0.28624,-0.73027"
       inkscape:connector-curvature="0"
       inkscape:export-filename="/Users/pagem/Documents/workspace/summerSchool/img/TSL.png"
       inkscape:export-xdpi="380.06427"
       inkscape:export-ydpi="380.06427" />
    <path
       id="path3983"
       style="fill:#b1c635;fill-opacity:1;fill-rule:nonzero;stroke:none"
       d="m 288.76762,560.03517 0,-1.87668 0.3368,0 0,0.31633 c 0.0856,-0.12332 0.18746,-0.21742 0.30508,-0.28273 0.11777,-0.065 0.2462,-0.0976 0.38574,-0.0976 0.0343,0 0.0628,0.003 0.0856,0.008 0.0229,0.005 0.0455,0.0136 0.0671,0.025 l 0,0.35754 c -0.0457,-0.0134 -0.0884,-0.0232 -0.12785,-0.0295 -0.0393,-0.006 -0.0779,-0.009 -0.11557,-0.009 -0.16804,0 -0.30962,0.0636 -0.42447,0.19083 -0.11484,0.12726 -0.17226,0.28667 -0.17226,0.47837 l 0,0.91979 -0.34016,0"
       inkscape:connector-curvature="0"
       inkscape:export-filename="/Users/pagem/Documents/workspace/summerSchool/img/TSL.png"
       inkscape:export-xdpi="380.06427"
       inkscape:export-ydpi="380.06427" />
    <path
       id="path3985"
       style="fill:#b1c635;fill-opacity:1;fill-rule:nonzero;stroke:none"
       d="m 291.31439,560.02144 c -0.0754,0.17256 -0.14027,0.30245 -0.19463,0.38983 -0.0542,0.0875 -0.10593,0.14947 -0.15502,0.186 -0.0479,0.0342 -0.10681,0.0603 -0.17665,0.078 -0.0695,0.0177 -0.15006,0.0264 -0.24153,0.0264 -0.031,0 -0.0663,-0.001 -0.10637,-0.003 -0.0399,-0.002 -0.0827,-0.006 -0.12844,-0.0104 l 0,-0.31955 c 0.0457,0.007 0.0845,0.012 0.11646,0.0153 0.032,0.004 0.0593,0.005 0.0823,0.005 0.12127,0 0.21201,-0.0251 0.2725,-0.0752 0.0605,-0.0503 0.11032,-0.14305 0.14918,-0.27864 l -0.85096,-1.87668 0.40532,0 0.63924,1.58212 0.62391,-1.58212 0.39772,0 -0.83299,1.86295"
       inkscape:connector-curvature="0"
       inkscape:export-filename="/Users/pagem/Documents/workspace/summerSchool/img/TSL.png"
       inkscape:export-xdpi="380.06427"
       inkscape:export-ydpi="380.06427" />
    <path
       style="fill:#34495e;fill-opacity:1;stroke:none"
       d="m 247.5,634.86218 0,47.5 52.5,0 0,-47.5 z"
       id="path3923-7"
       inkscape:connector-curvature="0"
       sodipodi:nodetypes="ccccc"
       inkscape:export-filename="/Users/pagem/Documents/workspace/summerSchool/pin.png"
       inkscape:export-xdpi="88.589996"
       inkscape:export-ydpi="88.589996" />
    <path
       id="path3937-7"
       style="fill:#ffffff;fill-opacity:1;fill-rule:nonzero;stroke:none"
       d="m 264.83939,651.43919 0.0148,-0.0276 c 0.2018,-1.23057 0.76098,-2.27586 1.67653,-3.13647 -0.30699,0.0752 -0.48715,0.1182 -0.58373,0.1372 -0.54559,0.0383 -0.94515,0.0573 -1.19828,0.0573 l -11.60149,0 c -0.64296,0 -1.16891,-0.0668 -1.57786,-0.2009 l -1.1398,3.67856 c 0.66208,-0.50965 1.29476,-0.84293 1.89834,-1.00001 0.46717,-0.11747 1.16805,-0.17635 2.10296,-0.17635 1.05133,0 1.87864,0.0295 2.4825,0.0877 l 0,13.97404 c 0,1.11131 -0.0391,1.85181 -0.11672,2.22195 -0.17494,0.79911 -0.59274,1.37421 -1.2531,1.72488 l 6.10768,0 c -0.66836,-0.44799 -1.1107,-0.91087 -1.32701,-1.38837 -0.21632,-0.47721 -0.3242,-1.22256 -0.3242,-2.23599 l 0,-14.29285 0.49799,0 c 0.56619,0 1.02965,-0.0151 1.39093,-0.0456 0.36129,-0.0303 0.61984,-0.0457 0.77623,-0.0457 0.7808,0 1.33454,0.0587 1.66947,0.14699 0.14275,0.0377 0.28333,0.0928 0.50478,0.52133"
       inkscape:connector-curvature="0"
       inkscape:export-filename="/Users/pagem/Documents/workspace/summerSchool/pin.png"
       inkscape:export-xdpi="88.589996"
       inkscape:export-ydpi="88.589996" />
    <path
       id="path3939-9"
       style="fill:#ffffff;fill-opacity:1;fill-rule:nonzero;stroke:none"
       d="m 281.6393,662.82132 c 0,1.57701 -0.64071,2.98638 -1.92198,4.22805 -1.59702,1.53774 -3.77529,2.30644 -6.53523,2.30644 -1.87303,0 -3.70618,-0.32527 -5.50016,-0.97559 l -0.94624,-3.8738 c 2.1077,1.65007 4.39306,2.47504 6.85566,2.47504 1.31985,0 2.42798,-0.30535 3.32438,-0.91629 0.89641,-0.61077 1.34469,-1.36953 1.34469,-2.27612 0,-0.8671 -0.34468,-1.60594 -1.0339,-2.21688 -0.59074,-0.51254 -1.9249,-1.24168 -4.0025,-2.18749 -2.07759,-0.94573 -3.50994,-1.77351 -4.2975,-2.48295 -1.08328,-0.98513 -1.62464,-2.1874 -1.62464,-3.60631 0,-1.6752 0.70486,-3.01506 2.11456,-4.02018 1.40986,-1.00511 3.29823,-1.5076 5.66454,-1.5076 1.55772,0 3.14525,0.22662 4.76214,0.67914 l 0,3.54384 c -1.40035,-1.35403 -3.0472,-2.03127 -4.9404,-2.03127 -1.22311,0 -2.21435,0.27104 -2.97341,0.81327 -0.7595,0.54223 -1.13896,1.24679 -1.13896,2.11383 0,0.76885 0.30041,1.41467 0.90152,1.93685 0.60097,0.52226 1.83782,1.21714 3.70998,2.08442 2.22707,1.02507 3.74446,1.86289 4.55261,2.51321 1.12318,0.88724 1.68484,2.02076 1.68484,3.40039"
       inkscape:connector-curvature="0"
       inkscape:export-filename="/Users/pagem/Documents/workspace/summerSchool/pin.png"
       inkscape:export-xdpi="88.589996"
       inkscape:export-ydpi="88.589996" />
    <path
       id="path3941-9"
       style="fill:#ffffff;fill-opacity:1;fill-rule:nonzero;stroke:none"
       d="m 297.78999,664.6707 -1.63633,4.09118 -12.59515,0 c 0.66028,-0.35056 1.07817,-0.9252 1.25307,-1.72431 0.0776,-0.3504 0.11674,-1.09073 0.11674,-2.22076 l 0,-12.4197 c 0,-1.1299 -0.0392,-1.87011 -0.11674,-2.22078 -0.1749,-0.79881 -0.59279,-1.37362 -1.25307,-1.72429 l 5.84455,0 c -0.6695,0.35067 -1.09308,0.92548 -1.27002,1.72429 -0.0788,0.35067 -0.11806,1.09088 -0.11806,2.22078 l 0,13.85172 c 1.44375,0.21422 2.82891,0.32135 4.15591,0.32135 1.11193,0 2.07277,-0.13619 2.88268,-0.40902 0.80962,-0.27276 1.72166,-0.76971 2.73642,-1.49046"
       inkscape:connector-curvature="0"
       inkscape:export-filename="/Users/pagem/Documents/workspace/summerSchool/pin.png"
       inkscape:export-xdpi="88.589996"
       inkscape:export-ydpi="88.589996" />
    <path
       style="fill:#34495e;fill-opacity:1;stroke:none"
       d="m 267.5,682.36218 5,5 5,-5 z"
       id="path4014-9"
       inkscape:connector-curvature="0"
       sodipodi:nodetypes="cccc"
       inkscape:export-filename="/Users/pagem/Documents/workspace/summerSchool/pin.png"
       inkscape:export-xdpi="88.589996"
       inkscape:export-ydpi="88.589996" />
  </g>
</svg>
